<svg width="100" height="87" viewBox="0 0 100 87" fill="none" xmlns="http://www.w3.org/2000/svg">
<path d="M50.0227 18.1901C62.5739 18.1901 72.7603 28.3765 72.7603 40.9277C72.7603 43.8836 72.1692 46.6576 71.1232 49.2497L84.402 62.5284C91.2688 56.7986 96.6803 49.3861 100 40.9277C92.1328 20.9641 72.7149 6.82128 49.9773 6.82128C43.6107 6.82128 37.5171 7.95816 31.8781 10.0045L41.7008 19.8272C44.2929 18.7813 47.0668 18.1901 50.0227 18.1901ZM4.54752 5.77535L14.9159 16.1437L17.0077 18.2356C9.45884 24.1019 3.54707 31.9236 0 40.9277C7.86721 60.8913 27.2851 75.0341 50.0227 75.0341C57.0714 75.0341 63.8017 73.6699 69.9409 71.2142L71.8508 73.1242L85.1751 86.4029L90.9504 80.6276L10.3229 0L4.54752 5.77535ZM29.6953 30.9232L36.744 37.9718C36.5166 38.9268 36.3802 39.9272 36.3802 40.9277C36.3802 48.4766 42.4739 54.5703 50.0227 54.5703C51.0232 54.5703 52.0236 54.4338 52.9786 54.2065L60.0273 61.2551C56.9804 62.7558 53.6153 63.6653 50.0227 63.6653C37.4716 63.6653 27.2851 53.4789 27.2851 40.9277C27.2851 37.3352 28.1946 33.97 29.6953 30.9232V30.9232ZM49.2951 27.3761L63.6198 41.7008L63.7108 40.9732C63.7108 33.4243 57.6171 27.3306 50.0682 27.3306L49.2951 27.3761Z" fill="white"/>
</svg>
