<svg width="26" height="101" viewBox="0 0 26 101" fill="none" xmlns="http://www.w3.org/2000/svg">
<path d="M0.5 88C0.5 94.875 6.125 100.5 13 100.5C19.875 100.5 25.5 94.875 25.5 88C25.5 81.125 19.875 75.5 13 75.5C6.125 75.5 0.5 81.125 0.5 88ZM0.5 13C0.5 19.875 6.125 25.5 13 25.5C19.875 25.5 25.5 19.875 25.5 13C25.5 6.125 19.875 0.5 13 0.5C6.125 0.5 0.5 6.125 0.5 13ZM0.5 50.5C0.5 57.375 6.125 63 13 63C19.875 63 25.5 57.375 25.5 50.5C25.5 43.625 19.875 38 13 38C6.125 38 0.5 43.625 0.5 50.5Z" fill="white"/>
</svg>
